{
	"asset":{
		"generator":"Khronos glTF Blender I/O v4.4.55",
		"version":"2.0"
	},
	"scene":0,
	"scenes":[
		{
			"name":"Scene",
			"nodes":[
				5
			]
		}
	],
	"nodes":[
		{
			"mesh":0,
			"name":"\ufffd\ufffd\ufffd\ufffd001.001",
			"translation":[
				32.95840835571289,
				-5.978917121887207,
				23.595355987548828
			]
		},
		{
			"mesh":1,
			"name":"\ufffd\ufffd\ufffd\ufffd002",
			"translation":[
				32.95840835571289,
				-5.978917121887207,
				23.595355987548828
			]
		},
		{
			"mesh":2,
			"name":"\ufffd\ufffd\ufffd\ufffd003",
			"translation":[
				32.95840835571289,
				-5.978917121887207,
				23.595355987548828
			]
		},
		{
			"mesh":3,
			"name":"\ufffd\ufffd\ufffd\ufffd003.001",
			"translation":[
				32.95840835571289,
				-5.978917121887207,
				23.595355987548828
			]
		},
		{
			"mesh":4,
			"name":"\ufffd\ufffd\ufffd\ufffd003.002",
			"translation":[
				32.95840835571289,
				-5.978917121887207,
				23.595355987548828
			]
		},
		{
			"children":[
				0,
				1,
				2,
				3,
				4
			],
			"mesh":5,
			"name":"\ufffd\ufffd\ufffd\ufffd001",
			"rotation":[
				0.598115086555481,
				0.5990438461303711,
				-0.3767258822917938,
				0.3761415481567383
			],
			"translation":[
				-0.3498115539550781,
				48.95758819580078,
				5.978923797607422
			]
		}
	],
	"materials":[
		{
			"doubleSided":true,
			"name":"\u6750\u8d28.001",
			"pbrMetallicRoughness":{
				"metallicFactor":0,
				"roughnessFactor":0.5
			}
		},
		{
			"doubleSided":true,
			"name":"\u6750\u8d28.006",
			"pbrMetallicRoughness":{
				"baseColorFactor":[
					0.8003629446029663,
					0.689706563949585,
					0.055743567645549774,
					1
				],
				"metallicFactor":0,
				"roughnessFactor":0.5
			}
		},
		{
			"doubleSided":true,
			"name":"\u6750\u8d28.011",
			"pbrMetallicRoughness":{
				"metallicFactor":0,
				"roughnessFactor":0.5
			}
		},
		{
			"doubleSided":true,
			"name":"\u6750\u8d28.008",
			"pbrMetallicRoughness":{
				"metallicFactor":0,
				"roughnessFactor":0.5
			}
		},
		{
			"doubleSided":true,
			"name":"\u6750\u8d28.002",
			"pbrMetallicRoughness":{
				"metallicFactor":0,
				"roughnessFactor":0.5
			}
		},
		{
			"doubleSided":true,
			"name":"\u6750\u8d28.009",
			"pbrMetallicRoughness":{
				"metallicFactor":0,
				"roughnessFactor":0.5
			}
		}
	],
	"meshes":[
		{
			"name":"Mesh_1",
			"primitives":[
				{
					"attributes":{
						"POSITION":0,
						"NORMAL":1,
						"TEXCOORD_0":2
					},
					"indices":3,
					"material":0
				}
			]
		},
		{
			"name":"Mesh_2",
			"primitives":[
				{
					"attributes":{
						"POSITION":4,
						"NORMAL":5,
						"TEXCOORD_0":6
					},
					"indices":7,
					"material":1
				}
			]
		},
		{
			"name":"Mesh_3",
			"primitives":[
				{
					"attributes":{
						"POSITION":8,
						"NORMAL":9,
						"TEXCOORD_0":10
					},
					"indices":11,
					"material":2
				}
			]
		},
		{
			"name":"Mesh_4",
			"primitives":[
				{
					"attributes":{
						"POSITION":12,
						"NORMAL":13,
						"TEXCOORD_0":14
					},
					"indices":15,
					"material":3
				}
			]
		},
		{
			"name":"Mesh_5",
			"primitives":[
				{
					"attributes":{
						"POSITION":16,
						"NORMAL":17,
						"TEXCOORD_0":18
					},
					"indices":19,
					"material":4
				}
			]
		},
		{
			"name":"Mesh_0",
			"primitives":[
				{
					"attributes":{
						"POSITION":20,
						"NORMAL":21,
						"TEXCOORD_0":22
					},
					"indices":23,
					"material":5
				}
			]
		}
	],
	"accessors":[
		{
			"bufferView":0,
			"componentType":5126,
			"count":454,
			"max":[
				23.22789764404297,
				8.261678695678711,
				-28.92217254638672
			],
			"min":[
				-119.73246002197266,
				3.9160609245300293,
				-29.445741653442383
			],
			"type":"VEC3"
		},
		{
			"bufferView":1,
			"componentType":5126,
			"count":454,
			"type":"VEC3"
		},
		{
			"bufferView":2,
			"componentType":5126,
			"count":454,
			"type":"VEC2"
		},
		{
			"bufferView":3,
			"componentType":5123,
			"count":510,
			"type":"SCALAR"
		},
		{
			"bufferView":4,
			"componentType":5126,
			"count":12539,
			"max":[
				138.51698303222656,
				10.328279495239258,
				-19.5993595123291
			],
			"min":[
				128.23231506347656,
				2.339975118637085,
				-27.596452713012695
			],
			"type":"VEC3"
		},
		{
			"bufferView":5,
			"componentType":5126,
			"count":12539,
			"type":"VEC3"
		},
		{
			"bufferView":6,
			"componentType":5126,
			"count":12539,
			"type":"VEC2"
		},
		{
			"bufferView":7,
			"componentType":5123,
			"count":12870,
			"type":"SCALAR"
		},
		{
			"bufferView":8,
			"componentType":5126,
			"count":9477,
			"max":[
				128.52102661132812,
				32.762611389160156,
				2.861858367919922
			],
			"min":[
				-119.73246002197266,
				-20.09145164489746,
				-50.052818298339844
			],
			"type":"VEC3"
		},
		{
			"bufferView":9,
			"componentType":5126,
			"count":9477,
			"type":"VEC3"
		},
		{
			"bufferView":10,
			"componentType":5126,
			"count":9477,
			"type":"VEC2"
		},
		{
			"bufferView":11,
			"componentType":5123,
			"count":9900,
			"type":"SCALAR"
		},
		{
			"bufferView":12,
			"componentType":5126,
			"count":186,
			"max":[
				92.83169555664062,
				17.639728546142578,
				-12.313919067382812
			],
			"min":[
				89.6028060913086,
				-4.903282165527344,
				-34.8817253112793
			],
			"type":"VEC3"
		},
		{
			"bufferView":13,
			"componentType":5126,
			"count":186,
			"type":"VEC3"
		},
		{
			"bufferView":14,
			"componentType":5126,
			"count":186,
			"type":"VEC2"
		},
		{
			"bufferView":15,
			"componentType":5123,
			"count":198,
			"type":"SCALAR"
		},
		{
			"bufferView":16,
			"componentType":5126,
			"count":6603,
			"max":[
				-119.2508773803711,
				13.123297691345215,
				-17.05722999572754
			],
			"min":[
				-129.5408172607422,
				0.057064998894929886,
				-30.138633728027344
			],
			"type":"VEC3"
		},
		{
			"bufferView":17,
			"componentType":5126,
			"count":6603,
			"type":"VEC3"
		},
		{
			"bufferView":18,
			"componentType":5126,
			"count":6603,
			"type":"VEC2"
		},
		{
			"bufferView":19,
			"componentType":5123,
			"count":7326,
			"type":"SCALAR"
		},
		{
			"bufferView":20,
			"componentType":5126,
			"count":36714,
			"max":[
				86.77405548095703,
				16.265830993652344,
				6.281757354736328
			],
			"min":[
				-86.77405548095703,
				-16.265830993652344,
				-6.281757354736328
			],
			"type":"VEC3"
		},
		{
			"bufferView":21,
			"componentType":5126,
			"count":36714,
			"type":"VEC3"
		},
		{
			"bufferView":22,
			"componentType":5126,
			"count":36714,
			"type":"VEC2"
		},
		{
			"bufferView":23,
			"componentType":5123,
			"count":42216,
			"type":"SCALAR"
		}
	],
	"bufferViews":[
		{
			"buffer":0,
			"byteLength":5448,
			"byteOffset":0,
			"target":34962
		},
		{
			"buffer":0,
			"byteLength":5448,
			"byteOffset":5448,
			"target":34962
		},
		{
			"buffer":0,
			"byteLength":3632,
			"byteOffset":10896,
			"target":34962
		},
		{
			"buffer":0,
			"byteLength":1020,
			"byteOffset":14528,
			"target":34963
		},
		{
			"buffer":0,
			"byteLength":150468,
			"byteOffset":15548,
			"target":34962
		},
		{
			"buffer":0,
			"byteLength":150468,
			"byteOffset":166016,
			"target":34962
		},
		{
			"buffer":0,
			"byteLength":100312,
			"byteOffset":316484,
			"target":34962
		},
		{
			"buffer":0,
			"byteLength":25740,
			"byteOffset":416796,
			"target":34963
		},
		{
			"buffer":0,
			"byteLength":113724,
			"byteOffset":442536,
			"target":34962
		},
		{
			"buffer":0,
			"byteLength":113724,
			"byteOffset":556260,
			"target":34962
		},
		{
			"buffer":0,
			"byteLength":75816,
			"byteOffset":669984,
			"target":34962
		},
		{
			"buffer":0,
			"byteLength":19800,
			"byteOffset":745800,
			"target":34963
		},
		{
			"buffer":0,
			"byteLength":2232,
			"byteOffset":765600,
			"target":34962
		},
		{
			"buffer":0,
			"byteLength":2232,
			"byteOffset":767832,
			"target":34962
		},
		{
			"buffer":0,
			"byteLength":1488,
			"byteOffset":770064,
			"target":34962
		},
		{
			"buffer":0,
			"byteLength":396,
			"byteOffset":771552,
			"target":34963
		},
		{
			"buffer":0,
			"byteLength":79236,
			"byteOffset":771948,
			"target":34962
		},
		{
			"buffer":0,
			"byteLength":79236,
			"byteOffset":851184,
			"target":34962
		},
		{
			"buffer":0,
			"byteLength":52824,
			"byteOffset":930420,
			"target":34962
		},
		{
			"buffer":0,
			"byteLength":14652,
			"byteOffset":983244,
			"target":34963
		},
		{
			"buffer":0,
			"byteLength":440568,
			"byteOffset":997896,
			"target":34962
		},
		{
			"buffer":0,
			"byteLength":440568,
			"byteOffset":1438464,
			"target":34962
		},
		{
			"buffer":0,
			"byteLength":293712,
			"byteOffset":1879032,
			"target":34962
		},
		{
			"buffer":0,
			"byteLength":84432,
			"byteOffset":2172744,
			"target":34963
		}
	],
	"buffers":[
		{
			"byteLength":2257176,
			"uri":"%E6%9C%AA%E5%91%BD%E5%90%8D.bin"
		}
	]
}
