{"accessors" : [{"bufferView" : 0, "byteOffset" : 0, "componentType" : 5123, "count" : 42216, "type" : "SCALAR", "max" : [36955], "min" : [0]}, {"bufferView" : 1, "byteOffset" : 0, "componentType" : 5126, "count" : 36956, "type" : "VEC3", "max" : [53.815650939941406, 22.244747161865234, -17.3135986328125], "min" : [-119.73246002197266, -10.286913871765137, -29.877113342285156], "name" : "POSITION"}, {"bufferView" : 1, "byteOffset" : 12, "componentType" : 5126, "count" : 36956, "type" : "VEC3", "max" : [1.0000044107437134, 1.0000044107437134, 1.0000044107437134], "min" : [-1.0000044107437134, -1.0000044107437134, -0.9992474317550659], "name" : "NORMAL"}, {"bufferView" : 1, "byteOffset" : 24, "componentType" : 5126, "count" : 36956, "type" : "VEC2", "max" : [0.6694051623344421, 1.9980000257492065], "min" : [0.0020000000949949026, 1.0019999742507935], "name" : "TEXCOORD_0"}, {"bufferView" : 0, "byteOffset" : 84432, "componentType" : 5123, "count" : 510, "type" : "SCALAR", "max" : [453], "min" : [0]}, {"bufferView" : 2, "byteOffset" : 0, "componentType" : 5126, "count" : 454, "type" : "VEC3", "max" : [23.22789764404297, 8.261678695678711, -28.92217254638672], "min" : [-119.73246002197266, 3.9160609245300293, -29.445741653442383], "name" : "POSITION"}, {"bufferView" : 2, "byteOffset" : 12, "componentType" : 5126, "count" : 454, "type" : "VEC3", "max" : [0.036501411348581314, 0.26360905170440674, -0.9401965141296387], "min" : [-0.023300418630242348, -0.3404987156391144, -0.9993196725845337], "name" : "NORMAL"}, {"bufferView" : 2, "byteOffset" : 24, "componentType" : 5126, "count" : 454, "type" : "VEC2", "max" : [0.1738157570362091, 1.9980000257492065], "min" : [0.13490000367164612, 1.0019999742507935], "name" : "TEXCOORD_0"}, {"bufferView" : 0, "byteOffset" : 85452, "componentType" : 5123, "count" : 12870, "type" : "SCALAR", "max" : [12538], "min" : [0]}, {"bufferView" : 3, "byteOffset" : 0, "componentType" : 5126, "count" : 12539, "type" : "VEC3", "max" : [138.51698303222656, 10.328279495239258, -19.5993595123291], "min" : [128.23231506347656, 2.339975118637085, -27.596452713012695], "name" : "POSITION"}, {"bufferView" : 3, "byteOffset" : 12, "componentType" : 5126, "count" : 12539, "type" : "VEC3", "max" : [0.998993456363678, 0.9999699592590332, 0.9989072680473328], "min" : [-1.0000044107437134, -1.0000030994415283, -0.9989073276519775], "name" : "NORMAL"}, {"bufferView" : 3, "byteOffset" : 24, "componentType" : 5126, "count" : 12539, "type" : "VEC2", "max" : [0.7827472686767578, 1.9980000257492065], "min" : [0.0020000000949949026, 1.0019999742507935], "name" : "TEXCOORD_0"}, {"bufferView" : 0, "byteOffset" : 111192, "componentType" : 5123, "count" : 9900, "type" : "SCALAR", "max" : [9476], "min" : [0]}, {"bufferView" : 4, "byteOffset" : 0, "componentType" : 5126, "count" : 9477, "type" : "VEC3", "max" : [128.52102661132812, 32.762611389160156, 2.861858367919922], "min" : [-119.73246002197266, -20.09145164489746, -50.052818298339844], "name" : "POSITION"}, {"bufferView" : 4, "byteOffset" : 12, "componentType" : 5126, "count" : 9477, "type" : "VEC3", "max" : [1.0000044107437134, 0.9999665021896362, 0.9988791346549988], "min" : [-1.0000044107437134, -0.9956145882606506, -0.998997151851654], "name" : "NORMAL"}, {"bufferView" : 4, "byteOffset" : 24, "componentType" : 5126, "count" : 9477, "type" : "VEC2", "max" : [0.8912249207496643, 1.9980000257492065], "min" : [0.0020000000949949026, 1.0019999742507935], "name" : "TEXCOORD_0"}, {"bufferView" : 0, "byteOffset" : 130992, "componentType" : 5123, "count" : 198, "type" : "SCALAR", "max" : [185], "min" : [0]}, {"bufferView" : 5, "byteOffset" : 0, "componentType" : 5126, "count" : 186, "type" : "VEC3", "max" : [92.83169555664062, 17.639728546142578, -12.313919067382812], "min" : [89.6028060913086, -4.903282165527344, -34.8817253112793], "name" : "POSITION"}, {"bufferView" : 5, "byteOffset" : 12, "componentType" : 5126, "count" : 186, "type" : "VEC3", "max" : [0.22760820388793945, 0.9738277792930603, 0.9727309942245483], "min" : [0.2269039899110794, -0.969474732875824, -0.9727309942245483], "name" : "NORMAL"}, {"bufferView" : 5, "byteOffset" : 24, "componentType" : 5126, "count" : 186, "type" : "VEC2", "max" : [0.9940266609191895, 1.9514999389648438], "min" : [0.8880000114440918, 1.481100082397461], "name" : "TEXCOORD_0"}, {"bufferView" : 0, "byteOffset" : 131388, "componentType" : 5123, "count" : 7326, "type" : "SCALAR", "max" : [6602], "min" : [0]}, {"bufferView" : 6, "byteOffset" : 0, "componentType" : 5126, "count" : 6603, "type" : "VEC3", "max" : [-119.2508773803711, 13.123297691345215, -17.05722999572754], "min" : [-129.5408172607422, 0.057064998894929886, -30.138633728027344], "name" : "POSITION"}, {"bufferView" : 6, "byteOffset" : 12, "componentType" : 5126, "count" : 6603, "type" : "VEC3", "max" : [1.0000044107437134, 1.0000044107437134, 0.9988757371902466], "min" : [-1.0000044107437134, -0.9954912662506104, -0.9988757371902466], "name" : "NORMAL"}, {"bufferView" : 6, "byteOffset" : 24, "componentType" : 5126, "count" : 6603, "type" : "VEC2", "max" : [0.9150608777999878, 1.9980000257492065], "min" : [0.0020000000949949026, 1.0019999742507935], "name" : "TEXCOORD_0"}], "asset" : {"generator" : "Aspose.3D 25.3.0", "version" : "2.0"}, "buffers" : [{"uri" : "data:application/octet-stream;base64,", "byteLength" : 2264948}], "bufferViews" : [{"buffer" : 0, "byteOffset" : 0, "byteLength" : 146040, "target" : 34963}, {"buffer" : 0, "byteOffset" : 146044, "byteLength" : 1182592, "byteStride" : 32, "target" : 34962}, {"buffer" : 0, "byteOffset" : 1328640, "byteLength" : 14528, "byteStride" : 32, "target" : 34962}, {"buffer" : 0, "byteOffset" : 1343172, "byteLength" : 401248, "byteStride" : 32, "target" : 34962}, {"buffer" : 0, "byteOffset" : 1744424, "byteLength" : 303264, "byteStride" : 32, "target" : 34962}, {"buffer" : 0, "byteOffset" : 2047692, "byteLength" : 5952, "byteStride" : 32, "target" : 34962}, {"buffer" : 0, "byteOffset" : 2053648, "byteLength" : 211296, "byteStride" : 32, "target" : 34962}], "images" : [{"uri" : "data:image/png;base64,"}, {"uri" : "data:image/png;base64,"}, {"uri" : "data:image/png;base64,"}, {"uri" : "data:image/png;base64,"}], "materials" : [{"name" : ".009", "pbrMetallicRoughness" : {"baseColorFactor" : [1, 1, 1, 1], "baseColorTexture" : {"index" : 0, "texCoord" : 0}, "metallicFactor" : 0, "roughnessFactor" : 0.5}, "emissiveFactor" : [0, 0, 0], "alphaMode" : "OPAQUE", "doubleSided" : true}, {"name" : ".001", "pbrMetallicRoughness" : {"baseColorFactor" : [1, 1, 1, 1], "baseColorTexture" : {"index" : 1, "texCoord" : 0}, "metallicFactor" : 0, "roughnessFactor" : 0.5}, "emissiveFactor" : [0, 0, 0], "alphaMode" : "OPAQUE", "doubleSided" : true}, {"name" : ".006", "pbrMetallicRoughness" : {"baseColorFactor" : [0.8003629446029663, 0.689706563949585, 0.055743567645549774, 1], "metallicFactor" : 0, "roughnessFactor" : 0.5}, "emissiveFactor" : [0, 0, 0], "alphaMode" : "OPAQUE", "doubleSided" : true}, {"name" : ".011", "pbrMetallicRoughness" : {"baseColorFactor" : [1, 1, 1, 1], "baseColorTexture" : {"index" : 2, "texCoord" : 0}, "metallicFactor" : 0, "roughnessFactor" : 0.5}, "emissiveFactor" : [0, 0, 0], "alphaMode" : "OPAQUE", "doubleSided" : true}, {"name" : ".008", "pbrMetallicRoughness" : {"baseColorFactor" : [1, 1, 1, 1], "metallicFactor" : 0, "roughnessFactor" : 0.5}, "emissiveFactor" : [0, 0, 0], "alphaMode" : "OPAQUE", "doubleSided" : true}, {"name" : ".002", "pbrMetallicRoughness" : {"baseColorFactor" : [1, 1, 1, 1], "baseColorTexture" : {"index" : 3, "texCoord" : 0}, "metallicFactor" : 0, "roughnessFactor" : 0.5}, "emissiveFactor" : [0, 0, 0], "alphaMode" : "OPAQUE", "doubleSided" : true}], "meshes" : [{"primitives" : [{"attributes" : {"POSITION" : 1, "NORMAL" : 2, "TEXCOORD_0" : 3}, "indices" : 0, "material" : 0, "mode" : 4}]}, {"primitives" : [{"attributes" : {"POSITION" : 5, "NORMAL" : 6, "TEXCOORD_0" : 7}, "indices" : 4, "material" : 1, "mode" : 4}]}, {"primitives" : [{"attributes" : {"POSITION" : 9, "NORMAL" : 10, "TEXCOORD_0" : 11}, "indices" : 8, "material" : 2, "mode" : 4}]}, {"primitives" : [{"attributes" : {"POSITION" : 13, "NORMAL" : 14, "TEXCOORD_0" : 15}, "indices" : 12, "material" : 3, "mode" : 4}]}, {"primitives" : [{"attributes" : {"POSITION" : 17, "NORMAL" : 18, "TEXCOORD_0" : 19}, "indices" : 16, "material" : 4, "mode" : 4}]}, {"primitives" : [{"attributes" : {"POSITION" : 21, "NORMAL" : 22, "TEXCOORD_0" : 23}, "indices" : 20, "material" : 5, "mode" : 4}]}], "nodes" : [{"mesh" : 1, "name" : "001.001"}, {"mesh" : 2, "name" : "002"}, {"mesh" : 3, "name" : "003"}, {"mesh" : 4, "name" : "003.001"}, {"mesh" : 5, "name" : "003.002"}, {"children" : [0, 1, 2, 3, 4], "matrix" : [-1.4210854715202004E-14, 0, -1.0000000000000142, 0, 0.9999999999999858, -2.384185933124172E-07, 0, 0, -2.384185791015625E-07, -0.9999999999999858, -1.4210854715202004E-14, 0, -7, 30, 0, 1], "mesh" : 0, "name" : "001"}], "samplers" : [{"magFilter" : 9729, "minFilter" : 9987, "wrapS" : 10497, "wrapT" : 10497}, {"magFilter" : 9729, "minFilter" : 9987, "wrapS" : 10497, "wrapT" : 10497}, {"magFilter" : 9729, "minFilter" : 9987, "wrapS" : 10497, "wrapT" : 10497}, {"magFilter" : 9729, "minFilter" : 9987, "wrapS" : 10497, "wrapT" : 10497}], "scene" : 0, "scenes" : [{"nodes" : [5]}], "textures" : [{"sampler" : 0, "source" : 0, "name" : ""}, {"sampler" : 1, "source" : 1, "name" : ""}, {"sampler" : 2, "source" : 2, "name" : ""}, {"sampler" : 3, "source" : 3, "name" : ""}]}